<?xml version="1.0" encoding="utf-8"?>
<!-- Generator: Adobe Illustrator 25.2.3, SVG Export Plug-In . SVG Version: 6.00 Build 0)  -->
<svg version="1.1" id="Layer_1" xmlns="http://www.w3.org/2000/svg" xmlns:xlink="http://www.w3.org/1999/xlink" x="0px" y="0px"
	 viewBox="0 0 595.28 841.89" style="enable-background:new 0 0 595.28 841.89;" xml:space="preserve">
<style type="text/css">
	.st0{fill:#F39200;stroke:#000000;stroke-miterlimit:10;}
	.st1{fill:#2FAC66;stroke:#000000;stroke-miterlimit:10;}
	.st2{fill:#F39200;}
</style>
<g>
	<path class="st0" d="M551.86,311.83l-21.32,0.51c-20.19-104.53-114.13-182.33-225.02-179.68
		C194.64,135.3,104.52,217.5,89.34,322.87l-22.41,0.54C82.92,177.79,181.42,64.74,303.29,61.83S528.95,167.14,551.86,311.83z"/>
	<path class="st1" d="M520.05,298.48l-40.77,1.03c-17.1-75.86-97.49-131.97-192.56-129.56c-95.09,2.4-172.54,62.5-185.77,139.12
		c14.45-93.49,100.07-166.64,205.41-169.3S500.9,205.84,520.05,298.48z"/>
	<path class="st0" d="M542.55,366.61l-20.5,0.92c-12.4,103.27-97.38,185.38-204.01,190.17S119.41,488.33,97.8,386.59l-21.55,0.97
		c25.07,140.93,127.18,244.62,244.37,239.36S530.22,509.22,542.55,366.61z"/>
	<path class="st1" d="M515.41,369.71l-39.87-1.1c-17.17,83.9-96.12,146.02-189.09,143.45c-92.98-2.57-168.37-68.96-180.87-153.69
		c13.58,103.37,96.89,184.19,199.89,187.04C408.48,548.26,496.13,472.17,515.41,369.71z"/>
</g>
<g>
	<path class="st2" d="M110.57,336.19l2.08-16.01c0.4-2.88,0.89-5.68,1.46-8.41c-0.06,0.03-0.2,0.19-0.41,0.49
		c-0.82,0.83-1.4,1.25-1.74,1.25c-0.49,0-0.73-0.46-0.73-1.38c0-0.98,0.19-2.39,0.57-4.22c0.38-1.84,0.76-3.22,1.14-4.14
		c0.86-1.99,2.18-3.56,3.95-4.71c1.77-1.16,3.75-1.73,5.94-1.73c1.33,0,2.52,0.28,3.6,0.85c1.07,0.56,1.99,1.4,2.74,2.51
		c0.76,1.11,1.33,2.45,1.73,4.02c0.4,1.57,0.59,3.32,0.59,5.25c0,2.7-0.22,5.1-0.67,7.2c-0.45,2.11-1.16,4.08-2.13,5.91
		c-1.08,2.02-2.1,3.35-3.05,4c-0.11,0.09-0.29,0.18-0.55,0.27v0.22c4.16,1.33,6.23,5.63,6.23,12.9c0,1.45-0.1,2.96-0.29,4.54
		c-0.2,1.57-0.48,3.11-0.85,4.63c-0.37,1.51-0.82,2.89-1.34,4.14c-1.12,2.76-2.46,5.32-4,7.69c-1.54,2.37-3.1,4.28-4.66,5.74
		c-1.56,1.45-2.9,2.18-4.01,2.18c-0.94,0-1.83-0.27-2.69-0.8c-0.86-0.53-1.54-1.24-2.05-2.11c-0.51-0.87-0.76-1.82-0.76-2.82
		c0-0.92,0.1-1.78,0.31-2.58c0.21-0.8,0.59-1.79,1.15-2.98l-0.07-0.18c-0.32,0.3-0.63,0.44-0.94,0.44c-0.65,0-1.18-0.47-1.58-1.42
		c-0.4-0.95-0.6-2.24-0.6-3.87c0-0.92,0.17-3.06,0.5-6.43C109.73,343.25,110.12,339.77,110.57,336.19z M118.32,330.36
		c-0.05,0.39-0.1,0.82-0.14,1.29c-0.05,0.47-0.1,0.92-0.14,1.33c-0.56,4.71-1.07,8.54-1.54,11.47c-0.47,2.94-0.96,5.43-1.48,7.47
		c-0.3,1.25-0.72,2.56-1.28,3.96c1.43,1.1,2.45,1.81,3.06,2.13c0.61,0.33,1.22,0.49,1.82,0.49c0.7,0,1.32-0.26,1.86-0.78
		c0.54-0.52,1.04-1.36,1.52-2.51c0.7-1.72,1.27-3.77,1.7-6.14c0.44-2.37,0.66-4.67,0.66-6.89c0-2.43-0.34-4.49-1.01-6.18
		c-0.33-0.83-0.7-1.47-1.11-1.91c-0.41-0.44-0.97-0.82-1.69-1.11c-0.66-0.33-1.12-0.64-1.38-0.93S118.61,331.2,118.32,330.36z
		 M120.97,307.5l-2.26,19.48c0.14,0.06,0.28,0.09,0.42,0.09c0.62,0,1.35-0.73,2.17-2.18c1.04-1.81,1.84-3.74,2.41-5.8
		c0.57-2.06,0.86-4.07,0.86-6.03c0-4.06-0.85-6.09-2.56-6.09C121.55,306.97,121.2,307.15,120.97,307.5z"/>
	<path class="st2" d="M148.57,338.54l-6.48-0.09v1.11c0,2.16,0.25,4.13,0.75,5.89c0.5,1.76,1.05,2.65,1.65,2.65
		c0.62,0,1.51-0.56,2.67-1.69c1.17-1.13,2.49-2.74,3.99-4.85l0.62-0.93c0.43-0.59,0.72-1.04,0.87-1.33c0.7-1.1,1.14-1.65,1.31-1.65
		c0.21,0,0.32,0.49,0.32,1.47c0,1.07-0.08,2.28-0.23,3.65c-0.15,1.36-0.35,2.68-0.59,3.94c-0.24,1.26-0.47,2.16-0.71,2.69
		c-0.67,1.51-1.83,3.16-3.46,4.94s-3.29,3.17-4.97,4.18c-0.57,0.3-1.09,0.44-1.56,0.44c-1.62,0-3.1-0.82-4.45-2.47
		c-1.34-1.65-2.39-3.91-3.13-6.78c-0.74-2.88-1.11-6.08-1.11-9.61c0-2.91,0.24-6.11,0.73-9.61c0.49-3.5,1.17-6.99,2.04-10.47
		c0.88-3.48,1.86-6.65,2.97-9.49c0.96-2.49,2.03-4.75,3.21-6.78s2.34-3.59,3.45-4.69s2.15-1.65,3.08-1.65
		c1.47,0,2.73,1.05,3.77,3.14s1.57,4.62,1.57,7.58c0,1.3-0.09,2.73-0.28,4.27c-0.19,1.54-0.44,2.89-0.76,4.05
		c-0.33,1.25-0.82,2.46-1.47,3.65s-1.39,2.21-2.2,3.07c-0.98,0.98-1.82,1.47-2.52,1.47c-0.7,0-1.05-0.43-1.05-1.29
		c0-0.5,0.2-1.29,0.59-2.36c0.43-0.95,0.83-2.25,1.23-3.91c0.38-1.75,0.71-3.81,0.99-6.18c0.28-2.37,0.43-4.22,0.43-5.56
		c0-1.1-0.13-1.65-0.39-1.65c-0.41,0-1.16,1.14-2.24,3.42c-1.08,2.28-1.93,4.54-2.56,6.76c-0.59,2.08-1.08,4.19-1.46,6.34
		c-0.38,2.15-0.63,4.26-0.76,6.34h9.48c1.04,0,1.56,0.67,1.56,2c0,1.25-0.58,3.28-1.74,6.09
		C150.59,337.24,149.53,338.54,148.57,338.54z"/>
	<path class="st2" d="M160.48,337.57l1.23-8.41l1.69-10.72c0.58-3.88,1.1-6.95,1.56-9.21c0.33-1.6,0.5-2.73,0.5-3.38
		c0-0.86-0.28-1.79-0.84-2.8c-0.37-0.62-0.55-1.17-0.55-1.65c0-0.59,0.37-1.23,1.1-1.91c0.63-0.65,1.35-1.22,2.15-1.71
		c0.81-0.49,1.46-0.73,1.96-0.73c1,0,1.75,0.67,2.26,1.99c0.59,1.51,1.32,6.21,2.18,14.1c0.35,3.2,0.75,6.3,1.18,9.3
		c0.43,3,0.79,5.15,1.07,6.45c0.08,0.47,0.3,1.39,0.65,2.76c0.39-3.11,0.85-7.19,1.38-12.23c0.78-7.95,1.5-13.31,2.15-16.1
		c0.2-0.89,0.43-1.68,0.69-2.36c0.48-1.13,1.01-1.99,1.57-2.58c0.56-0.59,1.13-0.89,1.69-0.89c0.34,0,0.58,0.22,0.71,0.67
		c0.13,0.44,0.2,1.25,0.2,2.4c0,0.86-0.02,1.5-0.07,1.92c-0.12,1.54-0.32,3.54-0.62,5.98c-0.3,2.45-0.71,5.59-1.25,9.43
		c-0.54,3.84-1.21,8.49-2.01,13.95l-0.27,1.65c-0.09,0.71-0.18,1.29-0.25,1.73c-1.44,10.05-2.53,16.57-3.27,19.56
		c-0.15,0.62-0.34,1.2-0.55,1.73c-0.37,0.92-0.73,1.38-1.09,1.38c-0.91,0-1.9-2.43-2.95-7.29c-1.92-8.71-3.42-17.67-4.5-26.88
		c-0.22-1.72-0.39-3.34-0.51-4.86h-0.07l-2.15,16.96c-0.02,0.3-0.07,0.67-0.14,1.13c-0.07,0.46-0.13,0.9-0.18,1.31
		c-0.05,0.33-0.1,0.69-0.17,1.09c-0.07,0.4-0.12,0.73-0.17,1c-0.39,2.96-0.71,5.2-0.96,6.69c-0.25,1.5-0.5,2.74-0.75,3.71
		c-0.21,0.92-0.53,1.92-0.94,2.98c-0.6,1.39-1.27,2.49-2.01,3.29c-0.73,0.8-1.46,1.2-2.18,1.2c-0.6,0-0.91-0.61-0.91-1.82
		c0-0.92,0.27-2.51,0.8-4.76c0.62-2.58,1.31-6.12,2.08-10.63C160.06,340.09,160.24,338.93,160.48,337.57z"/>
	<path class="st2" d="M195.63,338.63l-0.36,2.94c-0.06,0.65-0.15,1.53-0.29,2.62c-0.64,5.6-1.17,9.28-1.59,11.03
		c-0.08,0.36-0.24,0.87-0.46,1.56c-0.77,1.75-1.7,2.63-2.8,2.63c-0.88,0-1.58-0.48-2.11-1.45c-0.53-0.96-0.8-2.2-0.8-3.71
		c0-1.1,0.15-3.06,0.46-5.89c0.31-2.83,0.65-5.52,1.03-8.07c-0.93-0.44-1.39-1.44-1.39-2.98c0-1.1,0.14-2.33,0.43-3.71
		c0.29-1.38,0.65-2.62,1.09-3.72c0.44-1.1,0.86-1.81,1.28-2.13c0.18-1.27,0.52-3.96,1.01-8.05c1.13-8.86,2.04-14.81,2.74-17.83
		c0.28-1.01,0.53-1.79,0.73-2.36c0.62-1.45,1.4-2.18,2.36-2.18c0.59,0,1.12,0.26,1.57,0.78c0.46,0.52,0.81,1.23,1.05,2.13
		c0.24,0.9,0.36,1.96,0.36,3.18c0,1.69-0.85,8.79-2.54,21.3c-0.02,0.21-0.06,0.51-0.12,0.91c-0.05,0.4-0.1,0.76-0.15,1.09
		l-0.07,0.36l6.55-0.36l0.32-2.8c0.37-3.02,0.75-6.01,1.15-8.96c0.4-2.95,0.75-5.32,1.04-7.12c0.29-1.79,0.58-3.37,0.88-4.74
		c0.3-1.36,0.58-2.39,0.84-3.07c0.62-1.69,1.47-2.53,2.55-2.53c1.85,0,2.77,2,2.77,6c0,3.77-0.81,10.64-2.42,20.61
		c-0.24,1.48-0.38,2.38-0.43,2.7c0.05-0.03,0.09-0.05,0.12-0.07c0.04-0.01,0.08-0.02,0.12-0.02c0.65,0,1.16,0.29,1.53,0.87
		c0.38,0.58,0.56,1.36,0.56,2.34c0,0.65-0.16,1.59-0.48,2.81c-0.32,1.22-0.66,2.29-1.02,3.23s-0.67,1.6-0.93,1.98
		c-0.25,0.33-0.73,0.67-1.45,1.02l-0.07,0.71c-0.08,0.44-0.21,1.26-0.37,2.45c-0.25,1.72-0.5,3.44-0.77,5.18
		c-0.26,1.73-0.48,3.08-0.65,4.04c-0.17,0.96-0.34,1.77-0.51,2.42c-0.2,0.71-0.43,1.32-0.69,1.82c-0.57,1.1-1.22,1.99-1.96,2.69
		c-0.74,0.7-1.35,1.05-1.83,1.05c-0.56,0-1-0.34-1.32-1.02s-0.48-1.65-0.48-2.89c0-2.13,0.44-6.57,1.33-13.3
		c0.21-1.48,0.36-2.56,0.44-3.25L195.63,338.63z"/>
	<path class="st2" d="M227.48,304.48l-1.08-4.89c0.27-0.53,0.53-0.9,0.76-1.11c0.91-0.77,2.01-1.16,3.3-1.16
		c1.3,0,2.31,0.93,3.02,2.8c0.61,1.63,1.12,3.92,1.51,6.85s0.75,7.12,1.08,12.54c0.18,2.76,0.33,4.83,0.46,6.22
		c0.42,3.88,0.69,6.37,0.83,7.45c0.14,1.08,0.38,2.81,0.74,5.18c0.12,0.68,0.28,1.64,0.47,2.87c0.2,1.23,0.38,2.38,0.56,3.45
		c0.39,2.31,0.98,5.37,1.78,9.16c-0.99,1.75-1.83,3.01-2.52,3.78c-0.69,0.77-1.31,1.16-1.88,1.16c-0.7,0-1.28-0.34-1.75-1.02
		c-0.47-0.68-0.89-1.76-1.27-3.25c-0.45-2.02-0.9-4.76-1.35-8.23c-0.05-0.33-0.1-0.74-0.17-1.25c-0.07-0.5-0.14-1.05-0.22-1.65
		c-1.39,1.45-2.47,2.18-3.24,2.18c-0.44,0-0.82-0.03-1.14-0.09c-0.27-0.06-1.54-0.15-3.8-0.27l-0.16,0.87
		c-0.65,3.48-1.26,6.13-1.83,7.93c-0.57,1.81-1.22,3.08-1.96,3.82c-0.74,0.74-1.67,1.11-2.78,1.11c-0.64,0-1.1-0.18-1.37-0.53
		c-0.27-0.36-0.41-0.93-0.41-1.73c0-0.98,0.65-3.68,1.95-8.09c0.46-1.54,0.81-2.76,1.03-3.65c-1.24-0.59-1.86-1.69-1.86-3.29
		c0-1.3,0.5-3.25,1.49-5.83c0.47-1.25,0.91-2.04,1.32-2.38c0.41-0.34,1.12-0.53,2.14-0.56c0.95-4.36,1.55-7.14,1.81-8.34
		c0.26-1.2,0.6-2.71,1.01-4.54c0.41-1.82,0.88-3.9,1.41-6.23C225.89,311.47,226.59,308.36,227.48,304.48z M229.01,316.2l-3.24,17.27
		h4.8l-1.49-17.27H229.01z"/>
	<path class="st2" d="M266.64,337.74h0.04h-0.07c-0.9,3.91-1.69,7.07-2.36,9.47c-0.67,2.4-1.32,4.37-1.94,5.91
		c-0.76,1.9-1.52,3.34-2.27,4.34c-0.76,0.99-1.48,1.49-2.17,1.49c-1.44,0-2.57-1.09-3.37-3.27c-0.81-2.18-1.21-5.24-1.21-9.18
		c0-5.1,0.56-12.6,1.67-22.5c0.38-3.29,0.76-6.37,1.15-9.25c0.39-2.88,0.81-5.66,1.26-8.36c0.45-2.7,0.8-4.61,1.05-5.74
		c0.18-0.77,0.42-1.39,0.72-1.85c0.3-0.46,0.73-0.84,1.29-1.13c0.85-0.42,1.65-0.62,2.4-0.62c1.26,0,1.88,1.36,1.88,4.1
		c0,1.54-0.27,3.84-0.8,6.89c-0.49,2.91-0.87,5.43-1.15,7.56c-0.02,0.18-0.07,0.48-0.12,0.91c-0.06,0.43-0.13,0.96-0.21,1.58
		c-0.22,1.78-0.53,4.45-0.91,8.01c-0.38,3.56-0.67,6.58-0.89,9.07c-0.21,2.49-0.32,4.1-0.32,4.84c0,1.1,0.12,1.65,0.37,1.65
		c0.27,0,0.89-1.54,1.85-4.63c0.91-2.94,1.95-6.66,3.12-11.18c1.17-4.52,2.13-8.55,2.89-12.07c0.5-2.28,0.86-3.85,1.09-4.69
		c0.23-0.84,0.46-1.49,0.7-1.93c0.63-1.16,1.37-1.73,2.22-1.73c1.09,0,1.63,1.25,1.63,3.74c0,0.5-0.04,1.54-0.11,3.11
		c-0.32,6.46-0.48,12.44-0.48,17.92c0,2.49,0.03,4.74,0.09,6.76c0.06,2.02,0.15,3.99,0.27,5.91c0.12,1.93,0.28,3.96,0.48,6.09
		c0.25,2.88,0.37,4.64,0.37,5.29c0,0.47-0.07,0.92-0.2,1.33c-0.19,0.71-0.56,1.29-1.12,1.73c-1.03,0.98-1.82,1.47-2.36,1.47
		c-0.69,0-1.33-0.62-1.94-1.87c-0.61-1.25-1.12-2.99-1.52-5.25c-0.46-2.64-0.76-6.09-0.91-10.36
		C266.72,340.59,266.68,339.4,266.64,337.74z"/>
	<path class="st2" d="M280.36,337.57l1.23-8.41l1.69-10.72c0.58-3.88,1.1-6.95,1.56-9.21c0.33-1.6,0.5-2.73,0.5-3.38
		c0-0.86-0.28-1.79-0.84-2.8c-0.37-0.62-0.55-1.17-0.55-1.65c0-0.59,0.37-1.23,1.1-1.91c0.63-0.65,1.35-1.22,2.15-1.71
		c0.81-0.49,1.46-0.73,1.96-0.73c1,0,1.75,0.67,2.26,1.99c0.59,1.51,1.32,6.21,2.18,14.1c0.35,3.2,0.75,6.3,1.18,9.3
		c0.43,3,0.79,5.15,1.07,6.45c0.08,0.47,0.3,1.39,0.65,2.76c0.39-3.11,0.85-7.19,1.38-12.23c0.78-7.95,1.5-13.31,2.15-16.1
		c0.2-0.89,0.43-1.68,0.69-2.36c0.48-1.13,1.01-1.99,1.57-2.58c0.56-0.59,1.13-0.89,1.69-0.89c0.34,0,0.58,0.22,0.71,0.67
		c0.13,0.44,0.2,1.25,0.2,2.4c0,0.86-0.02,1.5-0.07,1.92c-0.12,1.54-0.32,3.54-0.62,5.98c-0.3,2.45-0.71,5.59-1.25,9.43
		c-0.54,3.84-1.21,8.49-2.01,13.95l-0.27,1.65c-0.09,0.71-0.18,1.29-0.25,1.73c-1.44,10.05-2.53,16.57-3.27,19.56
		c-0.15,0.62-0.34,1.2-0.55,1.73c-0.37,0.92-0.73,1.38-1.09,1.38c-0.91,0-1.9-2.43-2.95-7.29c-1.92-8.71-3.42-17.67-4.5-26.88
		c-0.22-1.72-0.39-3.34-0.51-4.86h-0.07l-2.15,16.96c-0.02,0.3-0.07,0.67-0.14,1.13c-0.07,0.46-0.13,0.9-0.18,1.31
		c-0.05,0.33-0.1,0.69-0.17,1.09c-0.07,0.4-0.12,0.73-0.17,1c-0.39,2.96-0.71,5.2-0.96,6.69c-0.25,1.5-0.5,2.74-0.75,3.71
		c-0.21,0.92-0.53,1.92-0.94,2.98c-0.6,1.39-1.27,2.49-2.01,3.29c-0.73,0.8-1.46,1.2-2.18,1.2c-0.6,0-0.91-0.61-0.91-1.82
		c0-0.92,0.27-2.51,0.8-4.76c0.62-2.58,1.31-6.12,2.08-10.63C279.94,340.09,280.12,338.93,280.36,337.57z"/>
	<path class="st2" d="M318.79,305.95h-0.14c-0.99,0-2.65,0.95-4.95,2.85c-1.7,1.39-2.83,2.09-3.37,2.09c-0.38,0-0.7-0.3-0.98-0.91
		s-0.41-1.34-0.41-2.2c0-1.42,0.32-3.18,0.97-5.27c0.65-2.09,1.29-3.46,1.95-4.11c0.96-0.98,2.97-1.47,6.04-1.47
		c1.22,0,2.45,0.15,3.68,0.44c1.23,0.3,2.27,0.7,3.12,1.22c0.85,0.52,1.38,1.06,1.61,1.62c0.12,0.3,0.18,0.94,0.18,1.92
		c0,0.92-0.1,2.54-0.29,4.87c-0.2,2.33-0.42,4.56-0.68,6.7c-1.68,13.07-3.66,24.82-5.94,35.26c-0.57,2.61-1.12,4.63-1.64,6.05
		c-0.53,1.42-1.11,2.44-1.74,3.05c-0.63,0.61-1.39,0.91-2.26,0.91c-1.25,0-2.42-0.6-3.5-1.8c-1.08-1.2-1.93-2.83-2.55-4.89
		c-0.62-2.06-0.93-4.32-0.93-6.78c0-1.72,0.15-3.57,0.44-5.54s0.62-3.49,0.99-4.56c0.18-0.56,0.38-0.85,0.62-0.85
		c0.39,0,0.76,0.46,1.1,1.38c0.34,0.92,0.72,2.49,1.12,4.71c0.58,3.35,1.24,6.15,1.99,8.41c0.08,0.27,0.27,0.79,0.55,1.56
		c0.56-3.11,0.99-5.67,1.29-7.67c0.3-2,0.65-4.68,1.04-8.03c0.27-2.13,0.73-6.26,1.39-12.36
		C317.95,317.4,318.4,311.88,318.79,305.95z"/>
	<path class="st2" d="M343.71,304.88c0.67-1.63,1.33-3.01,1.96-4.14c0.63-1.13,1.07-1.69,1.31-1.69c0.37,0,0.55,0.87,0.55,2.62
		c0,2.05-0.09,4.26-0.28,6.65c-0.18,2.39-0.43,4.72-0.75,7c-0.52,3.88-1.21,8.19-2.06,12.92c-0.85,4.73-1.68,8.9-2.49,12.52
		c-0.52,2.28-1.2,5.04-2.02,8.27c-0.65,2.49-1.23,4.32-1.73,5.49c-0.5,1.17-1.1,2.13-1.8,2.87c-0.62,0.59-1.15,0.99-1.6,1.2
		c-0.54,0.24-0.98,0.36-1.31,0.36c-0.59,0-1.04-0.36-1.35-1.07c-0.37-0.98-0.7-2.68-1.01-5.11c-0.37-2.96-0.74-6.88-1.11-11.74
		c-0.37-4.86-0.62-9.09-0.75-12.67c-0.09-2.49-0.14-5.99-0.14-10.5c0-8.21,0.36-13.21,1.07-14.99c0.25-0.62,0.71-1.36,1.39-2.2
		c0.68-0.85,1.35-1.49,2.02-1.93c0.52-0.36,0.96-0.53,1.31-0.53c0.88,0,1.31,1.22,1.31,3.65c0,1.27-0.05,3.74-0.16,7.38
		c-0.19,7.35-0.28,13.12-0.28,17.3c0,7.29,0.13,12.76,0.38,16.41c0.14,1.75,0.25,2.96,0.32,3.65c0.45-1.48,0.83-2.85,1.14-4.1
		c0.3-1.26,0.6-2.6,0.88-4.02c0.58-2.97,0.99-5.27,1.22-6.9c0.75-4.66,1.35-9.55,1.78-14.68c0.28-3.65,0.61-6.26,0.97-7.83
		C342.73,307.76,343.15,306.36,343.71,304.88z"/>
	<path class="st2" d="M364.5,338.54l-6.48-0.09v1.11c0,2.16,0.25,4.13,0.75,5.89c0.5,1.76,1.05,2.65,1.65,2.65
		c0.62,0,1.51-0.56,2.67-1.69c1.17-1.13,2.49-2.74,3.99-4.85l0.62-0.93c0.43-0.59,0.72-1.04,0.87-1.33c0.7-1.1,1.14-1.65,1.31-1.65
		c0.21,0,0.32,0.49,0.32,1.47c0,1.07-0.08,2.28-0.23,3.65s-0.35,2.68-0.59,3.94c-0.24,1.26-0.47,2.16-0.71,2.69
		c-0.67,1.51-1.83,3.16-3.46,4.94s-3.29,3.17-4.97,4.18c-0.57,0.3-1.09,0.44-1.56,0.44c-1.62,0-3.1-0.82-4.45-2.47
		c-1.34-1.65-2.39-3.91-3.13-6.78c-0.74-2.88-1.11-6.08-1.11-9.61c0-2.91,0.24-6.11,0.73-9.61c0.49-3.5,1.17-6.99,2.04-10.47
		c0.88-3.48,1.86-6.65,2.97-9.49c0.96-2.49,2.03-4.75,3.21-6.78s2.33-3.59,3.45-4.69c1.12-1.1,2.15-1.65,3.08-1.65
		c1.47,0,2.73,1.05,3.77,3.14s1.57,4.62,1.57,7.58c0,1.3-0.09,2.73-0.28,4.27s-0.44,2.89-0.76,4.05c-0.33,1.25-0.82,2.46-1.47,3.65
		s-1.39,2.21-2.2,3.07c-0.98,0.98-1.82,1.47-2.52,1.47s-1.05-0.43-1.05-1.29c0-0.5,0.2-1.29,0.59-2.36
		c0.43-0.95,0.83-2.25,1.23-3.91c0.38-1.75,0.71-3.81,0.99-6.18c0.28-2.37,0.43-4.22,0.43-5.56c0-1.1-0.13-1.65-0.39-1.65
		c-0.41,0-1.16,1.14-2.24,3.42c-1.08,2.28-1.93,4.54-2.56,6.76c-0.59,2.08-1.08,4.19-1.46,6.34c-0.38,2.15-0.63,4.26-0.76,6.34h9.48
		c1.04,0,1.56,0.67,1.56,2c0,1.25-0.58,3.28-1.74,6.09C366.51,337.24,365.46,338.54,364.5,338.54z"/>
	<path class="st2" d="M378.36,311.33l0.48-3.02c-0.36,0.09-0.72,0.22-1.1,0.4c-0.24,0.12-0.56,0.18-0.98,0.18
		c-0.58,0-0.87-0.73-0.87-2.18c0-0.62,0.07-1.36,0.22-2.2c0.15-0.85,0.32-1.49,0.51-1.93c0.41-0.98,1.28-1.78,2.6-2.4
		s2.87-0.93,4.64-0.93c1.36,0,2.66,0.46,3.9,1.38c1.24,0.92,2.31,2.19,3.21,3.8s1.6,3.47,2.1,5.56s0.75,4.37,0.75,6.83
		c0,2.64-0.22,5.09-0.66,7.36s-1.06,4.25-1.86,5.94c-0.53,1.13-1.03,1.99-1.49,2.58c-0.46,0.59-1.12,1.22-1.99,1.87
		c0.22,1.04,0.42,1.84,0.59,2.4c0.17,0.56,0.46,1.35,0.86,2.36c1.07,2.4,2.59,4.58,4.58,6.54c0.09,0.12,0.21,0.24,0.36,0.36
		c-0.21,2.52-0.41,4.36-0.6,5.51c-0.19,1.16-0.49,2.42-0.89,3.78c-0.73,2.43-1.62,3.65-2.65,3.65c-0.57,0-1.27-0.53-2.1-1.58
		c-0.83-1.05-1.52-2.29-2.05-3.71c-0.41-1.22-0.8-2.51-1.15-3.87c-0.35-1.36-0.7-2.91-1.06-4.65s-0.66-3.42-0.91-5.07
		s-0.44-3.09-0.56-4.34c-0.02-0.24-0.04-0.58-0.04-1.02c0-0.62,0.07-1.11,0.21-1.47s0.4-0.68,0.78-0.98c0.53-0.47,0.97-1,1.31-1.58
		c0.34-0.58,0.78-1.48,1.3-2.69c0.59-1.63,1.06-3.53,1.39-5.71c0.34-2.18,0.51-4.38,0.51-6.6c0-2.64-0.24-4.69-0.73-6.16
		c-0.48-1.47-1.26-2.5-2.32-3.09c-1.02,9.28-2.03,18.01-3.02,26.19l-0.37,3.38c-0.62,5.34-1.14,9.29-1.56,11.87
		c-0.42,2.58-0.84,4.39-1.25,5.42c-0.41,1.04-1.06,2.06-1.94,3.07c-0.88,1.01-1.56,1.51-2.06,1.51c-0.97,0-1.46-1.36-1.46-4.09
		c0-1.13,0.13-3.06,0.4-5.8c0.27-2.74,0.68-6.33,1.23-10.76s1.14-8.77,1.75-13.01S377.66,315.8,378.36,311.33z"/>
	<path class="st2" d="M401.82,330.18c-1.02-2.58-1.73-4.87-2.15-6.87c-0.41-2-0.62-4.14-0.62-6.43c0-3.44,0.42-6.67,1.25-9.7
		c0.83-3.02,1.95-5.43,3.36-7.2c1.4-1.78,2.91-2.67,4.52-2.67c1.82,0,3.23,0.95,4.21,2.85c0.98,1.9,1.47,4.58,1.47,8.05
		c0,1.66-0.18,3.38-0.53,5.16c-0.36,1.78-0.85,3.44-1.47,4.98c-0.43,1.07-0.82,1.88-1.19,2.42c-0.37,0.55-0.67,0.82-0.92,0.82
		c-0.31,0-0.46-0.59-0.46-1.78c0,0.03,0.02-0.43,0.07-1.38c0.07-1.39,0.11-2.64,0.11-3.74c0-1.54-0.09-3.09-0.28-4.65
		c-0.18-1.56-0.42-2.86-0.71-3.91c-0.29-1.05-0.57-1.58-0.83-1.58c-0.13,0-0.28,0.25-0.44,0.76c-0.32,0.83-0.57,1.86-0.75,3.09
		c-0.18,1.23-0.27,2.38-0.27,3.45c0,1.34,0.08,2.58,0.23,3.72c0.15,1.14,0.42,2.31,0.8,3.49c0.38,1.18,0.88,2.48,1.51,3.91
		c1,2.25,1.76,4.22,2.3,5.91c0.54,1.69,0.93,3.37,1.18,5.05c0.25,1.68,0.37,3.49,0.37,5.45c0,3.44-0.36,6.76-1.08,9.96
		s-1.68,5.79-2.87,7.76s-2.42,2.96-3.68,2.96c-1.21,0-2.39-0.65-3.53-1.96s-2.23-3.17-3.23-5.6c-1.04-2.58-1.56-4.86-1.56-6.85
		c0-1.22,0.23-2.4,0.69-3.56c0.47-1.19,1.06-2.19,1.75-3.02c0.69-0.83,1.28-1.25,1.75-1.25c0.27,0,0.5,0.17,0.69,0.51
		c0.19,0.34,0.36,0.92,0.51,1.73c0.15,0.82,0.29,1.92,0.44,3.31c0.22,1.99,0.43,3.46,0.62,4.43s0.46,1.92,0.8,2.87
		c0.36,0.89,0.73,1.33,1.12,1.33c0.47,0,0.85-0.47,1.12-1.4c0.27-0.93,0.41-2.22,0.41-3.85c0-2.55-0.36-5.1-1.08-7.65
		c-0.21-0.86-0.45-1.62-0.7-2.29c-0.25-0.67-0.81-1.95-1.66-3.84C402.8,332.45,402.39,331.51,401.82,330.18z"/>
	<path class="st2" d="M427.86,305.95h-0.14c-0.99,0-2.65,0.95-4.95,2.85c-1.7,1.39-2.83,2.09-3.37,2.09c-0.38,0-0.7-0.3-0.98-0.91
		s-0.41-1.34-0.41-2.2c0-1.42,0.32-3.18,0.97-5.27c0.65-2.09,1.29-3.46,1.95-4.11c0.96-0.98,2.97-1.47,6.04-1.47
		c1.22,0,2.45,0.15,3.68,0.44c1.23,0.3,2.27,0.7,3.12,1.22c0.85,0.52,1.38,1.06,1.61,1.62c0.12,0.3,0.18,0.94,0.18,1.92
		c0,0.92-0.1,2.54-0.29,4.87c-0.2,2.33-0.42,4.56-0.68,6.7c-1.68,13.07-3.66,24.82-5.94,35.26c-0.57,2.61-1.12,4.63-1.64,6.05
		c-0.53,1.42-1.11,2.44-1.74,3.05c-0.63,0.61-1.39,0.91-2.26,0.91c-1.25,0-2.42-0.6-3.5-1.8c-1.08-1.2-1.93-2.83-2.55-4.89
		c-0.62-2.06-0.93-4.32-0.93-6.78c0-1.72,0.15-3.57,0.44-5.54c0.29-1.97,0.62-3.49,0.99-4.56c0.18-0.56,0.38-0.85,0.62-0.85
		c0.39,0,0.76,0.46,1.1,1.38c0.34,0.92,0.72,2.49,1.12,4.71c0.58,3.35,1.24,6.15,1.99,8.41c0.08,0.27,0.27,0.79,0.55,1.56
		c0.56-3.11,0.99-5.67,1.29-7.67c0.3-2,0.65-4.68,1.04-8.03c0.27-2.13,0.73-6.26,1.39-12.36
		C427.01,317.4,427.46,311.88,427.86,305.95z"/>
	<path class="st2" d="M448.7,329.72l-0.18,1.91c-0.06,0.65-0.11,1.21-0.16,1.67c-0.05,0.46-0.09,0.86-0.12,1.2
		c-0.03,0.34-0.06,0.69-0.1,1.05c-0.85,9.14-1.54,14.85-2.06,17.13c-0.24,1.01-0.59,1.91-1.07,2.71c-1.49,2.43-2.67,3.65-3.52,3.65
		c-0.59,0-1.09-0.54-1.5-1.62c-0.41-1.08-0.61-2.43-0.61-4.03c0-2.91,0.51-8.28,1.53-16.11c0.31-2.49,0.59-4.66,0.84-6.5
		c0.25-1.84,0.56-3.92,0.92-6.23c0.36-2.32,0.77-4.78,1.23-7.38s0.78-4.44,0.97-5.51c-1.56,0.58-3.07,0.87-4.51,0.87
		c-1.46,0-2.18-1.27-2.18-3.82c0-1.63,0.47-3.71,1.42-6.23c0.64-1.63,1.23-2.76,1.78-3.4c0.54-0.64,1.2-0.96,1.97-0.96
		c0.5,0,1.18,0.04,2.04,0.11c0.86,0.07,2.07,0.24,3.6,0.51l0.5,0.09l0.48,0.13c1.3,0.18,2.16,0.39,2.57,0.62
		c0.41,0.24,0.77,0.7,1.07,1.37c0.24,0.68,0.36,1.46,0.36,2.35c0,0.94-0.07,1.91-0.22,2.9c-0.15,0.99-0.33,1.72-0.54,2.19
		c-0.3,0.83-1.13,1.52-2.5,2.08c-0.12,0-0.24,0.03-0.37,0.09l-0.36,0.18c0.28,0.71,0.43,1.5,0.43,2.36c0,0.83-0.17,2.63-0.49,5.39
		c-0.11,0.68-0.36,2.92-0.76,6.72l-0.26,2.67L448.7,329.72z"/>
	<path class="st2" d="M465.51,308.53l0.14,3.34c0.05,0.53,0.08,1.45,0.11,2.76c0.27,8.12,0.7,15.37,1.28,21.75
		c0.26,2.67,0.58,5.25,0.94,7.74c0.5-2.49,1.01-5.16,1.53-8.01c0.19-1.07,0.37-2.08,0.53-3.02c0.17-0.95,0.28-1.59,0.33-1.91
		c0.05-0.33,0.16-0.96,0.33-1.91c0.25-1.48,0.65-4.09,1.21-7.83c0.36-2.49,0.59-4.14,0.72-4.94c0.12-0.8,0.37-2.18,0.74-4.14
		c0.44-2.46,1.03-4.62,1.78-6.49c0.43-1.1,0.91-2.15,1.46-3.16c0.55-1.01,1.06-1.79,1.55-2.36c0.49-0.56,0.88-0.84,1.19-0.84
		c0.46,0,0.69,0.46,0.69,1.38c0,0.83-0.12,1.91-0.37,3.25c-0.65,4.06-1.54,9.04-2.68,14.94c-1.13,5.9-2.29,11.65-3.47,17.26
		c-1.18,5.6-2.18,10.02-2.99,13.25c-0.66,2.76-1.33,5.25-1.99,7.48c-1.26,4.36-2.39,7.69-3.39,9.98c-1.01,2.3-2.14,4.13-3.41,5.49
		c-0.66,0.74-1.39,1.29-2.19,1.65c-0.59,0.24-1.05,0.36-1.39,0.36c-0.61,0-1.09-0.27-1.46-0.8c-0.37-0.53-0.55-1.29-0.55-2.27
		c0-1.1,0.21-2.74,0.63-4.91c0.42-2.18,0.86-3.89,1.31-5.14c0.29-0.71,0.82-1.07,1.6-1.07c0.85,0,1.57-0.25,2.15-0.76
		c0.4-0.27,0.82-0.65,1.24-1.16c0.43-0.5,0.91-1.2,1.44-2.09c-0.91-3.88-1.7-7.52-2.36-10.9c-0.66-3.38-1.22-6.7-1.68-9.96
		c-0.62-4.24-1.12-8.8-1.5-13.68c-0.39-4.88-0.58-9.12-0.58-12.74c0-2.11,0.09-3.7,0.28-4.78c0.19-1.08,0.52-1.98,0.99-2.69
		c0.69-1.1,1.46-2.04,2.31-2.82s1.55-1.18,2.1-1.18c0.46,0,0.77,0.42,0.93,1.25c0.16,0.83,0.26,2.56,0.29,5.2
		C465.37,305.96,465.44,307.46,465.51,308.53z"/>
</g>
</svg>
